<svg aria-hidden="true" style="width:0;height:0;position:absolute;overflow:hidden" xmlns="http://www.w3.org/2000/svg"><defs><symbol id="icon-comment" viewBox="0 0 32 32"><path d="M8 18.667h16v-2H8zm0-4.334h16v-2H8zM8 10h16V8H8zm21.333 19.333L24 24H4.667q-.767 0-1.383-.617T2.667 22V4.667q0-.767.617-1.383t1.383-.617h22.667q.8 0 1.4.617t.6 1.383zM4.667 4.667V22h20.167l2.5 2.5V4.667H4.667zm0 0z"/></symbol><symbol id="icon-download" viewBox="0 0 32 32"><path d="M9.333 22.667h13.333v-2H9.333zm6.567-4.2 5.267-5.233-1.4-1.4-2.833 2.8V8.001h-2v6.633l-2.833-2.8-1.4 1.4zm.1 10.866q-2.733 0-5.167-1.05t-4.25-2.867-2.867-4.25-1.05-5.167q0-2.767 1.05-5.2t2.867-4.233 4.25-2.85T16 2.666q2.767 0 5.2 1.05t4.233 2.85 2.85 4.233 1.05 5.2q0 2.733-1.05 5.167t-2.85 4.25-4.233 2.867-5.2 1.05zm0-2q4.733 0 8.033-3.317t3.3-8.017q0-4.733-3.3-8.033T16 4.666q-4.7 0-8.017 3.3t-3.317 8.033q0 4.7 3.317 8.017T16 27.333z"/></symbol><symbol id="icon-favorite" viewBox="0 0 32 32"><path d="m16 27.967-1.367-1.233Q11.1 23.501 8.8 21.151t-3.667-4.2-1.917-3.35-.55-3.033q0-3 2.017-5.017t4.983-2.017q1.9 0 3.517.9T16 7.034q1.4-1.8 2.967-2.65t3.367-.85q2.967 0 4.983 2.017t2.017 5.017q0 1.533-.55 3.033t-1.917 3.35-3.667 4.2-5.833 5.583zm0-2.634q3.367-3.1 5.55-5.317t3.467-3.883 1.8-2.967.517-2.6q0-2.2-1.4-3.617t-3.6-1.417q-1.7 0-3.167 1.05T16.8 9.532h-1.633q-.867-1.867-2.333-2.933T9.667 5.532q-2.2 0-3.6 1.417t-1.4 3.617q0 1.3.517 2.617t1.8 3 3.483 3.883T16 25.333z"/></symbol><symbol id="icon-search" viewBox="0 0 32 32"><path d="M26.533 27.967 17.766 19.2q-1 .867-2.333 1.35t-2.833.483q-3.6 0-6.1-2.5T4 12.5t2.5-6.033 6.067-2.5q3.533 0 6.017 2.5t2.483 6.033q0 1.433-.467 2.767t-1.4 2.5L28 26.5zm-13.966-8.934q2.7 0 4.6-1.917t1.9-4.617-1.9-4.617-4.6-1.917q-2.733 0-4.65 1.917T6 12.499t1.917 4.617 4.65 1.917z"/></symbol><symbol id="icon-visibility" viewBox="0 0 32 32"><path d="M16 21q2.367 0 4.017-1.65t1.65-4.017-1.65-4.017T16 9.666t-4.017 1.65-1.65 4.017 1.65 4.017T16 21zm0-1.933q-1.567 0-2.65-1.083t-1.083-2.65 1.083-2.65T16 11.601t2.65 1.083 1.083 2.65-1.083 2.65T16 19.067zm0 6.266q-4.867 0-8.8-2.767t-5.867-7.233Q3.266 10.866 7.2 8.1T16 5.333 24.8 8.1t5.867 7.233Q28.734 19.8 24.8 22.566T16 25.333zm0-2q4.033 0 7.417-2.183t5.15-5.817Q26.8 11.7 23.417 9.516T16 7.333 8.583 9.516 3.4 15.333q1.8 3.633 5.183 5.817T16 23.333z"/></symbol></defs></svg>