<svg aria-hidden="true" style="position: absolute; width: 0; height: 0; overflow: hidden;" version="1.1" xmlns="http://www.w3.org/2000/svg" xmlns:xlink="http://www.w3.org/1999/xlink">
<defs>
<symbol id="icon-comment" viewBox="0 0 32 32">
<path d="M8 18.667h16v-2h-16zM8 14.333h16v-2h-16zM8 10h16v-2h-16zM29.333 29.333l-5.333-5.333h-19.333q-0.767 0-1.383-0.617t-0.617-1.383v-17.333q0-0.767 0.617-1.383t1.383-0.617h22.667q0.8 0 1.4 0.617t0.6 1.383zM4.667 4.667v17.333h20.167l2.5 2.5v-19.833h-22.667zM4.667 4.667v0z"></path>
</symbol>
<symbol id="icon-download" viewBox="0 0 32 32">
<path d="M9.333 22.667h13.333v-2h-13.333zM15.9 18.467l5.267-5.233-1.4-1.4-2.833 2.8v-6.633h-2v6.633l-2.833-2.8-1.4 1.4zM16 29.333q-2.733 0-5.167-1.050t-4.25-2.867-2.867-4.25-1.050-5.167q0-2.767 1.050-5.2t2.867-4.233 4.25-2.85 5.167-1.050q2.767 0 5.2 1.050t4.233 2.85 2.85 4.233 1.050 5.2q0 2.733-1.050 5.167t-2.85 4.25-4.233 2.867-5.2 1.050zM16 27.333q4.733 0 8.033-3.317t3.3-8.017q0-4.733-3.3-8.033t-8.033-3.3q-4.7 0-8.017 3.3t-3.317 8.033q0 4.7 3.317 8.017t8.017 3.317z"></path>
</symbol>
<symbol id="icon-favorite" viewBox="0 0 32 32">
<path d="M16 27.967l-1.367-1.233q-3.533-3.233-5.833-5.583t-3.667-4.2-1.917-3.35-0.55-3.033q0-3 2.017-5.017t4.983-2.017q1.9 0 3.517 0.9t2.817 2.6q1.4-1.8 2.967-2.65t3.367-0.85q2.967 0 4.983 2.017t2.017 5.017q0 1.533-0.55 3.033t-1.917 3.35-3.667 4.2-5.833 5.583zM16 25.333q3.367-3.1 5.55-5.317t3.467-3.883 1.8-2.967 0.517-2.6q0-2.2-1.4-3.617t-3.6-1.417q-1.7 0-3.167 1.050t-2.367 2.95h-1.633q-0.867-1.867-2.333-2.933t-3.167-1.067q-2.2 0-3.6 1.417t-1.4 3.617q0 1.3 0.517 2.617t1.8 3 3.483 3.883 5.533 5.267z"></path>
</symbol>
<symbol id="icon-search" viewBox="0 0 32 32">
<path d="M26.533 27.967l-8.767-8.767q-1 0.867-2.333 1.35t-2.833 0.483q-3.6 0-6.1-2.5t-2.5-6.033 2.5-6.033 6.067-2.5q3.533 0 6.017 2.5t2.483 6.033q0 1.433-0.467 2.767t-1.4 2.5l8.8 8.733zM12.567 19.033q2.7 0 4.6-1.917t1.9-4.617-1.9-4.617-4.6-1.917q-2.733 0-4.65 1.917t-1.917 4.617 1.917 4.617 4.65 1.917z"></path>
</symbol>
<symbol id="icon-visibility" viewBox="0 0 32 32">
<path d="M16 21q2.367 0 4.017-1.65t1.65-4.017-1.65-4.017-4.017-1.65-4.017 1.65-1.65 4.017 1.65 4.017 4.017 1.65zM16 19.067q-1.567 0-2.65-1.083t-1.083-2.65 1.083-2.65 2.65-1.083 2.65 1.083 1.083 2.65-1.083 2.65-2.65 1.083zM16 25.333q-4.867 0-8.8-2.767t-5.867-7.233q1.933-4.467 5.867-7.233t8.8-2.767 8.8 2.767 5.867 7.233q-1.933 4.467-5.867 7.233t-8.8 2.767zM16 23.333q4.033 0 7.417-2.183t5.15-5.817q-1.767-3.633-5.15-5.817t-7.417-2.183-7.417 2.183-5.183 5.817q1.8 3.633 5.183 5.817t7.417 2.183z"></path>
</symbol>
</defs>
</svg>
