<!-- Generated by IcoMoon.io -->
<svg version="1.1" xmlns="http://www.w3.org/2000/svg" width="32" height="32" viewBox="0 0 32 32">
<title>download</title>
<path d="M9.333 22.667h13.333v-2h-13.333zM15.9 18.467l5.267-5.233-1.4-1.4-2.833 2.8v-6.633h-2v6.633l-2.833-2.8-1.4 1.4zM16 29.333q-2.733 0-5.167-1.050t-4.25-2.867-2.867-4.25-1.050-5.167q0-2.767 1.050-5.2t2.867-4.233 4.25-2.85 5.167-1.050q2.767 0 5.2 1.050t4.233 2.85 2.85 4.233 1.050 5.2q0 2.733-1.050 5.167t-2.85 4.25-4.233 2.867-5.2 1.050zM16 27.333q4.733 0 8.033-3.317t3.3-8.017q0-4.733-3.3-8.033t-8.033-3.3q-4.7 0-8.017 3.3t-3.317 8.033q0 4.7 3.317 8.017t8.017 3.317z"></path>
</svg>
