<!-- Generated by IcoMoon.io -->
<svg version="1.1" xmlns="http://www.w3.org/2000/svg" width="32" height="32" viewBox="0 0 32 32">
<title>favorite</title>
<path d="M16 27.967l-1.367-1.233q-3.533-3.233-5.833-5.583t-3.667-4.2-1.917-3.35-0.55-3.033q0-3 2.017-5.017t4.983-2.017q1.9 0 3.517 0.9t2.817 2.6q1.4-1.8 2.967-2.65t3.367-0.85q2.967 0 4.983 2.017t2.017 5.017q0 1.533-0.55 3.033t-1.917 3.35-3.667 4.2-5.833 5.583zM16 25.333q3.367-3.1 5.55-5.317t3.467-3.883 1.8-2.967 0.517-2.6q0-2.2-1.4-3.617t-3.6-1.417q-1.7 0-3.167 1.050t-2.367 2.95h-1.633q-0.867-1.867-2.333-2.933t-3.167-1.067q-2.2 0-3.6 1.417t-1.4 3.617q0 1.3 0.517 2.617t1.8 3 3.483 3.883 5.533 5.267z"></path>
</svg>
