<!-- Generated by IcoMoon.io -->
<svg version="1.1" xmlns="http://www.w3.org/2000/svg" width="32" height="32" viewBox="0 0 32 32">
<title>visibility</title>
<path d="M16 21q2.367 0 4.017-1.65t1.65-4.017-1.65-4.017-4.017-1.65-4.017 1.65-1.65 4.017 1.65 4.017 4.017 1.65zM16 19.067q-1.567 0-2.65-1.083t-1.083-2.65 1.083-2.65 2.65-1.083 2.65 1.083 1.083 2.65-1.083 2.65-2.65 1.083zM16 25.333q-4.867 0-8.8-2.767t-5.867-7.233q1.933-4.467 5.867-7.233t8.8-2.767 8.8 2.767 5.867 7.233q-1.933 4.467-5.867 7.233t-8.8 2.767zM16 23.333q4.033 0 7.417-2.183t5.15-5.817q-1.767-3.633-5.15-5.817t-7.417-2.183-7.417 2.183-5.183 5.817q1.8 3.633 5.183 5.817t7.417 2.183z"></path>
</svg>
